<?xml version="1.0" standalone="no"?>
<!DOCTYPE svg PUBLIC "-//W3C//DTD SVG 20010904//EN"
 "http://www.w3.org/TR/2001/REC-SVG-20010904/DTD/svg10.dtd">
<svg version="1.0" xmlns="http://www.w3.org/2000/svg"
 width="2560.000000pt" height="2560.000000pt" viewBox="0 0 2560.000000 2560.000000"
 preserveAspectRatio="xMidYMid meet">
<metadata>
Created by potrace 1.16, written by Peter Selinger 2001-2019
</metadata>
<g transform="translate(0.000000,2560.000000) scale(0.100000,-0.100000)"
fill="#000000" stroke="none">
<path d="M1160 18150 l0 -390 11640 0 11640 0 0 390 0 390 -11640 0 -11640 0
0 -390z"/>
<path d="M19180 17508 c-3 -3 -34 -8 -70 -11 -249 -22 -509 -148 -704 -341
-45 -45 -91 -95 -102 -111 -10 -17 -33 -49 -50 -71 -82 -109 -165 -309 -203
-489 -25 -114 -28 -150 -28 -257 0 -231 51 -437 163 -659 94 -188 257 -376
421 -485 46 -30 91 -57 100 -61 10 -4 20 -9 23 -12 11 -13 109 -54 193 -81
204 -67 486 -62 727 11 121 37 356 166 405 223 6 6 22 21 36 32 79 61 209 259
194 296 -9 20 -565 350 -581 344 -8 -3 -23 -26 -34 -50 -19 -46 -89 -146 -101
-146 -3 0 -22 -13 -40 -30 -19 -16 -41 -30 -49 -30 -9 0 -20 -4 -25 -9 -19
-18 -119 -41 -178 -41 -61 0 -163 22 -200 43 -129 73 -230 208 -283 382 -16
50 -19 91 -18 255 1 192 1 196 32 278 37 99 66 151 121 214 56 63 125 111 191
134 70 24 213 24 290 1 118 -35 218 -123 272 -239 13 -29 28 -48 38 -48 9 0
90 53 180 118 91 65 209 148 263 185 53 38 97 75 97 83 0 26 -61 126 -114 188
-167 195 -357 307 -611 361 -69 15 -345 32 -355 23z"/>
<path d="M15457 17493 c-18 -5 -18 -36 -14 -791 2 -516 8 -801 15 -827 6 -22
18 -77 28 -123 10 -46 21 -85 26 -88 4 -3 8 -14 8 -25 0 -12 14 -50 30 -86 17
-35 30 -70 30 -76 0 -7 9 -23 20 -37 11 -14 20 -30 20 -37 0 -21 99 -145 175
-220 193 -190 426 -285 734 -299 199 -9 431 21 546 70 110 47 148 66 214 110
224 147 379 383 449 686 41 177 43 225 40 1000 l-3 745 -343 3 c-222 1 -350
-1 -362 -8 -19 -10 -20 -29 -20 -733 0 -397 -3 -738 -6 -757 -8 -53 -33 -137
-62 -215 -33 -86 -124 -183 -211 -223 -49 -24 -69 -27 -161 -27 -92 0 -112 3
-161 26 -100 47 -193 164 -235 296 -38 119 -42 208 -43 927 -1 385 -4 703 -7
708 -5 8 -674 10 -707 1z"/>
<path d="M1625 17478 c-3 -7 -4 -589 -3 -1293 l3 -1280 360 0 360 0 5 386 5
387 50 56 c28 31 75 84 106 118 l56 61 214 -323 c118 -178 268 -405 334 -504
l120 -181 680 -3 c374 -1 690 0 702 3 16 4 26 17 34 48 6 23 15 51 19 62 5 11
23 70 40 130 17 61 36 121 41 135 5 14 11 35 14 47 2 13 10 35 17 50 l13 28
319 3 c218 1 323 -1 332 -9 7 -6 22 -43 34 -82 12 -40 28 -90 35 -112 8 -22
30 -94 51 -160 20 -66 41 -126 46 -132 8 -10 96 -13 380 -13 330 0 369 2 375
16 3 9 -8 51 -24 93 -17 42 -39 99 -48 126 -23 67 -25 71 -50 140 -13 33 -35
92 -49 130 -14 39 -30 79 -35 90 -5 11 -24 61 -41 110 -17 50 -35 98 -40 107
-6 10 -10 23 -10 29 0 6 -6 25 -14 42 -15 35 -46 118 -124 327 -234 635 -282
764 -327 880 -34 90 -131 351 -150 405 -36 105 -1 96 -335 93 l-294 -3 -27
-70 c-15 -38 -78 -205 -139 -370 -61 -165 -118 -316 -125 -335 -31 -80 -138
-367 -146 -390 -11 -35 -57 -161 -68 -185 -15 -36 -39 -97 -96 -255 -31 -85
-60 -163 -66 -172 -5 -10 -9 -23 -9 -29 0 -6 -6 -25 -14 -42 -8 -18 -46 -120
-86 -227 -39 -107 -75 -204 -80 -215 -23 -59 -40 -102 -45 -123 -9 -33 -25
-24 -70 43 -22 33 -80 117 -130 186 -49 70 -133 189 -185 263 -52 75 -133 189
-178 254 -46 64 -104 147 -128 183 -24 36 -53 75 -64 87 -11 12 -20 24 -20 28
0 3 -10 19 -22 34 -13 15 -29 36 -35 46 -7 10 -31 45 -53 78 -43 61 -42 59 -5
103 6 6 33 39 60 74 28 34 76 92 108 130 31 37 57 72 57 78 0 6 3 11 8 11 4 0
25 23 47 51 22 28 52 65 66 82 76 92 218 268 249 307 19 25 40 50 46 55 6 6
33 39 60 75 27 35 59 75 72 88 12 12 22 26 22 30 0 4 21 30 45 57 25 28 45 56
45 63 0 9 -80 12 -369 12 l-369 0 -33 -42 c-19 -24 -36 -45 -39 -48 -5 -5 -15
-18 -200 -245 -262 -322 -347 -427 -443 -547 -56 -70 -105 -127 -109 -128 -5
0 -8 227 -8 505 l0 505 -360 0 c-279 0 -362 -3 -365 -12z m3520 -858 c17 -68
31 -123 59 -225 10 -33 33 -121 52 -195 19 -74 44 -168 55 -207 10 -40 19 -77
19 -83 0 -7 -71 -10 -216 -10 -198 1 -215 3 -209 18 6 15 31 104 40 142 12 51
27 106 50 185 14 50 28 97 30 105 5 21 86 312 91 329 7 21 12 11 29 -59z"/>
<path d="M6550 16195 l0 -1295 360 0 360 0 0 1295 0 1295 -360 0 -360 0 0
-1295z"/>
<path d="M7695 17478 c-3 -7 -4 -589 -3 -1293 l3 -1280 360 0 360 0 5 390 5
390 105 3 c130 4 141 1 164 -40 11 -18 47 -78 81 -133 34 -55 128 -208 210
-340 81 -132 154 -248 163 -257 14 -17 64 -18 773 -18 834 0 781 -4 794 62 3
18 10 42 15 53 5 11 19 54 30 95 12 41 28 98 37 125 8 28 21 72 29 99 7 26 19
55 25 62 9 11 71 14 329 14 294 0 318 -1 333 -18 10 -10 17 -25 17 -34 0 -8
13 -55 29 -104 15 -49 47 -149 70 -222 l43 -132 376 2 377 3 -2 28 c-1 23 -19
73 -93 272 -31 83 -74 196 -108 285 -22 58 -48 130 -58 160 -10 30 -22 59 -26
64 -4 6 -8 16 -8 24 0 8 -6 28 -14 45 -8 18 -22 55 -32 82 -9 28 -21 55 -25
60 -4 6 -11 26 -17 45 -5 19 -48 139 -95 265 -47 127 -120 322 -161 435 -42
113 -83 219 -91 237 -8 17 -15 35 -15 39 0 5 -9 31 -20 59 -11 27 -47 124 -80
215 -34 91 -70 189 -82 218 l-20 52 -294 0 -294 0 -14 -32 c-8 -18 -21 -52
-30 -75 -9 -24 -22 -60 -30 -80 -14 -35 -49 -130 -301 -808 -118 -317 -125
-336 -136 -357 -5 -10 -9 -23 -9 -29 0 -6 -6 -25 -14 -42 -8 -18 -44 -113 -81
-212 -91 -247 -253 -682 -270 -725 -8 -19 -24 -64 -36 -99 l-23 -64 -19 24
c-10 13 -76 119 -146 234 -70 116 -185 304 -255 418 l-128 208 66 60 c85 78
151 165 198 261 48 97 63 142 82 247 55 294 -40 598 -257 815 -83 83 -134 120
-245 176 -152 77 -109 73 -865 77 -546 3 -678 1 -682 -9z m1248 -676 c41 -39
58 -77 68 -151 12 -97 -4 -192 -42 -247 -50 -73 -57 -75 -316 -72 l-228 3 -3
257 -2 258 212 2 c231 3 260 -1 311 -50z m2261 -177 c8 -33 23 -94 34 -135 12
-41 37 -136 56 -210 20 -74 49 -186 66 -248 16 -62 30 -117 30 -122 0 -7 -76
-10 -215 -10 -118 1 -215 3 -215 5 0 3 7 26 15 52 8 26 19 62 24 78 6 17 13
48 17 70 3 22 10 45 13 50 4 6 13 35 20 65 7 30 18 73 26 95 7 22 32 110 55
195 51 188 49 184 55 178 2 -2 11 -31 19 -63z"/>
<path d="M13417 17483 c-10 -9 -8 -2555 1 -2571 7 -10 203 -12 948 -10 l939 3
0 315 0 315 -582 3 -583 2 0 975 0 975 -358 0 c-197 0 -362 -3 -365 -7z"/>
<path d="M20540 17483 c0 -5 0 -586 0 -1293 l0 -1285 357 0 358 0 5 500 c3
275 8 499 13 498 4 -2 192 -3 417 -3 l410 0 0 -487 c0 -269 4 -494 8 -501 7
-9 86 -12 363 -10 l354 3 3 1293 2 1292 -365 0 -365 0 0 -470 0 -470 -417 2
-418 3 -3 468 -2 467 -360 0 c-198 0 -360 -3 -360 -7z"/>
<path d="M23252 16198 l3 -1293 363 -3 362 -2 0 1295 0 1295 -365 0 -365 0 2
-1292z"/>
<path d="M1160 14295 l0 -395 11640 0 11640 0 0 395 0 395 -11640 0 -11640 0
0 -395z"/>
</g>
</svg>
